# xmcd
#
# Track frame offsets: 
#        150
#        113862
#        188905
#        242242
#
# Disc length: 4268 seconds
#
# Revision: 0
# Processed by: cddbd v1.5.2PL0 Copyright (c) Steve Scherf et al.
# Submitted via: ExactAudioCopy v0.99pb3
#
DISCID=3110aa04
DTITLE=Mita Nag - Sitar
DYEAR=2004
DGENRE=Classical
TTITLE0=Raga Basant Mukhari Alap
TTITLE1=Raga Basant Mukhari Gat
TTITLE2=Raga Bageshree Alap
TTITLE3=Raga Bageshree Gat
EXTD=
EXTT0=
EXTT1=
EXTT2=
EXTT3=
PLAYORDER=
